<?xml version="1.0" encoding="UTF-8"?> <svg xmlns="http://www.w3.org/2000/svg" xmlns:xlink="http://www.w3.org/1999/xlink" viewBox="0 0 2832.3 2694.66"><defs><style>.cls-1{fill:#bae4f4;}.cls-2{fill:url(#linear-gradient);}.cls-3{fill:#686842;}.cls-4{fill:#49472a;}.cls-11,.cls-5{fill:#fff;}.cls-6{fill:#c2c4c6;}.cls-7{fill:#312b30;}.cls-8{fill:#5d5d5d;}.cls-9{fill:#e0e2e2;}.cls-10{fill:#fc766b;}.cls-11{opacity:0.15;}.cls-12{fill:#2e5ea0;}.cls-13{fill:#f45b53;}.cls-14{fill:#fed65d;}.cls-15{fill:#f4bd34;}.cls-16{fill:#765742;}.cls-17{fill:#563d2d;}.cls-18{fill:#ffc0c2;}.cls-19{fill:#efbc3f;}.cls-20{fill:#597bc3;}.cls-21{fill:#5e4330;}.cls-22{fill:#83cce2;}.cls-23{fill:#3cc;}.cls-24{fill:#276ca3;}.cls-25{fill:#3d94c4;}.cls-26{fill:#0fb7ae;}.cls-27{fill:#184777;}.cls-28{fill:url(#linear-gradient-2);}.cls-29{fill:url(#linear-gradient-3);}.cls-30{fill:url(#linear-gradient-4);}</style><linearGradient id="linear-gradient" x1="663.97" y1="814.83" x2="2415.97" y2="2070.83" gradientUnits="userSpaceOnUse"><stop offset="0" stop-color="#276ca3"></stop><stop offset="0.25" stop-color="#2b8db1"></stop><stop offset="0.57" stop-color="#2fafc0"></stop><stop offset="0.83" stop-color="#32c4c9"></stop><stop offset="1" stop-color="#3cc"></stop></linearGradient><linearGradient id="linear-gradient-2" x1="2244.54" y1="1229.5" x2="2339.48" y2="1297.56" gradientTransform="translate(1566.5 -1251.7) rotate(45)" gradientUnits="userSpaceOnUse"><stop offset="0" stop-color="#bae4f4"></stop><stop offset="0.41" stop-color="#c1ecd4"></stop><stop offset="0.77" stop-color="#c5f2bf"></stop><stop offset="1" stop-color="#c7f4b7"></stop></linearGradient><linearGradient id="linear-gradient-3" x1="2282.91" y1="989.53" x2="2335.08" y2="1026.93" gradientTransform="translate(1390.17 -1337.99) rotate(45)" xlink:href="#linear-gradient-2"></linearGradient><linearGradient id="linear-gradient-4" x1="2356.89" y1="835.93" x2="2384.87" y2="855.99" gradientTransform="matrix(1, 0, 0, 1, 0, 0)" xlink:href="#linear-gradient-2"></linearGradient></defs><g id="Layer_2" data-name="Layer 2"><g id="Layer_1-2" data-name="Layer 1"><path class="cls-1" d="M967.75,421.52a120.44,120.44,0,0,0,32.37,32.77c32.18,21.87,65.87,21.43,78.28,20.65a163.11,163.11,0,0,0-25-22.32C1021.06,429.31,987.38,423.27,967.75,421.52Z"></path><path class="cls-1" d="M973.72,420.53A110.89,110.89,0,0,0,1014,407c31.08-17.78,44-45.83,48.26-56.41a149.69,149.69,0,0,0-28.62,11.68C1001.33,379.59,983,405,973.72,420.53Z"></path><path class="cls-1" d="M310.18,1474.07a4,4,0,0,0,7.23-3.11c-75.07-328.72,24.27-658.66,259.25-861.08,214.78-185,472.43-197.84,573.23-194.76a4,4,0,1,0,.25-8C1048.4,404,788.35,417,571.44,603.82,455.1,704,369.26,838.23,323.22,991.89c-45.82,152.93-50.53,319.2-13.61,480.86A4.1,4.1,0,0,0,310.18,1474.07Z"></path><path class="cls-1" d="M428,774.89c2.17-11.41,5.2-36.25-5.77-63.86-18.38-46.3-61.42-63.33-69.06-66.2a129.28,129.28,0,0,0,7.48,57.51C378.05,748.69,417.36,769.64,428,774.89Z"></path><path class="cls-1" d="M422.54,776.72c5,4.94,31.18,29.63,71.75,29.22,46.74-.47,74.37-33.86,78-38.43a199.53,199.53,0,0,0-40-8.82C484,753.18,444.49,766.86,422.54,776.72Z"></path><path class="cls-1" d="M513.75,658a146.87,146.87,0,0,0,39.31-40.24c26-39.76,24.75-80.89,23.52-96-10.39,4.3-33,15.4-49.57,40.07C498.62,604.09,511.66,651,513.75,658Z"></path><path class="cls-1" d="M515.58,664.36A147,147,0,0,0,569,682.05c47.14,5.94,83.55-13.22,96.61-21A198.81,198.81,0,0,0,626,650.69C577.9,643.26,537.91,655.38,515.58,664.36Z"></path><path class="cls-1" d="M665.89,538.05a146.86,146.86,0,0,0,39.34-40.21c26-39.75,24.8-80.88,23.58-96a197.87,197.87,0,0,0-26.72,31C674.3,472.8,667.62,514.05,665.89,538.05Z"></path><path class="cls-1" d="M664.69,543.11a147.16,147.16,0,0,0,40.44,39.11c39.9,25.8,81,24.31,96.15,23a198.48,198.48,0,0,0-31.16-26.53C730,551.14,688.7,544.7,664.69,543.11Z"></path><path class="cls-1" d="M810.25,463.82a147.31,147.31,0,0,0,31.47,46.63C875.41,544,916,551,931,552.88a198.58,198.58,0,0,0-25-32.42C872.48,485.19,833.42,470.35,810.25,463.82Z"></path><path class="cls-1" d="M809.12,462.31a147.05,147.05,0,0,0,50.78-24.22c38.12-28.36,51.11-67.4,55.17-82A199,199,0,0,0,879.31,376C839.47,403.93,819,440.37,809.12,462.31Z"></path><path class="cls-1" d="M240.7,2694.66H2826.85a4,4,0,1,0,0-8H245c-42.43-64.58-230.42-379.55-102.42-710.56,38.25-98.91,99.8-187.22,182.95-262.48a4,4,0,0,0-5.36-5.93c-84.09,76.1-146.34,165.43-185,265.53-130.65,337.86,64,658.75,104.39,719.65Z"></path><path class="cls-1" d="M165.55,2556.53c.76-11.59,4-36.4,21.58-60.38,29.39-40.22,75.32-45.93,83.43-46.8a129.19,129.19,0,0,1-21.63,53.81C220.47,2543.67,177.17,2554.12,165.55,2556.53Z"></path><path class="cls-1" d="M170.38,2559.67c-6.1,3.53-37.6,20.88-76.78,10.33-45.13-12.16-63.52-51.41-65.91-56.74a198.78,198.78,0,0,1,40.91,1.47C116.8,2521.5,151.6,2544.63,170.38,2559.67Z"></path><path class="cls-1" d="M118.36,2407.68a147.08,147.08,0,0,1,6.19-55.91c14.26-45.33,46.86-70.43,59.35-79.07,3.26,10.76,9,35.29.44,63.75C169.64,2385.19,125.14,2404.82,118.36,2407.68Z"></path><path class="cls-1" d="M112.29,2410.29a146.88,146.88,0,0,1-47.54-30.08c-34.48-32.69-42.74-73-45-88a198.69,198.69,0,0,1,33.14,24C89.09,2348.72,105.08,2387.33,112.29,2410.29Z"></path><path class="cls-1" d="M99.53,2225.49a147.15,147.15,0,0,1,28.83-48.31c31.77-35.33,71.85-44.64,86.8-47.33A198,198,0,0,1,192,2163.61C160.48,2200.69,122.3,2217.68,99.53,2225.49Z"></path><path class="cls-1" d="M95,2228a147.14,147.14,0,0,1-48.14-29.11c-35.14-32-44.21-72.12-46.81-87.08a198,198,0,0,1,33.62,23.35C70.51,2166.86,87.28,2205.14,95,2228Z"></path><path class="cls-1" d="M110.84,2057.34a147.11,147.11,0,0,1-38.7-40.83c-25.4-40.15-23.51-81.26-22-96.37a199.08,199.08,0,0,1,26.23,31.42C103.47,1992,109.49,2033.31,110.84,2057.34Z"></path><path class="cls-1" d="M112.07,2058.77a147,147,0,0,1,34.65-44.32c35.95-31.06,76.88-35.27,92.05-36.07a198.41,198.41,0,0,1-27.2,30.59C175.64,2041.8,135.63,2053.88,112.07,2058.77Z"></path><path class="cls-1" d="M170,1904.74a120.32,120.32,0,0,1-19-42c-8.93-37.87,3.52-69.18,8.69-80.49a162.35,162.35,0,0,1,11.9,31.34C181.76,1852.16,175.36,1885.78,170,1904.74Z"></path><path class="cls-1" d="M173,1899.51a111,111,0,0,1,27.05-32.81C227.81,1844,258.62,1842,270,1841.79a149.5,149.5,0,0,1-21.13,22.55C221.15,1888.36,190.84,1896.44,173,1899.51Z"></path><path class="cls-2" d="M1433,2399.36c263.73,168,553.94,199.46,752,72,150.82-97.06,203.89-257.74,219.82-308.32,123.72-392.82-234.07-578.22-204-1067.94,21.12-343.91,208.63-432.43,126-696-7.28-23.24-90.1-273.63-330-366-211.76-81.53-417.1,9.71-474,36C1091.36,268.58,1198.21,731.36,713,1055.36,538,1172.23,456.91,1156.89,347,1293.09c-201.73,249.86-164.5,593.46-156,672,11.8,108.91,22,203.48,90,300,120.32,170.9,326,212.23,416.08,230.32,134.42,27,247.65,15.51,315.89,3.67Z"></path><path class="cls-3" d="M1960.66,461.64a54.82,54.82,0,0,1-25.13,4.8,55.4,55.4,0,0,1-28.65-9.78s-12.64.4-26.89,1.84a256.76,256.76,0,0,0-36.61,8c-86.87,26.43-136.8,95.37-136.8,95.37-70.61,97.49-36,215-32,227.89l48.76-13c1.41-20.71,7.71-71.23,45.26-118.3a208.51,208.51,0,0,1,64.73-53.71l-21.24,86,159.36,91.94c17.93-26.25,59.21-93,63.22-175.63,0,0,2.55-52.61-23-115.42-2.11-5.17-6.1-13.95-15-20.78C1984.25,461.46,1969.3,461.05,1960.66,461.64Z"></path><path class="cls-4" d="M1905.51,755.8l65.91,26.93a352.26,352.26,0,0,1,36.66-66.27c31.82-45.19,62.43-65.74,56.43-79.16-2.61-5.83-12.65-11.48-48-8a186.45,186.45,0,0,1-31,65C1957.49,731.86,1922.39,748.92,1905.51,755.8Z"></path><rect class="cls-5" x="556.55" y="865.67" width="1405.49" height="1477.14"></rect><ellipse class="cls-6" cx="1307.78" cy="1468.47" rx="554.66" ry="559.36"></ellipse><ellipse class="cls-5" cx="1279.94" cy="1468.47" rx="554.66" ry="559.36"></ellipse><ellipse class="cls-6" cx="1279.94" cy="1468.47" rx="446.96" ry="450.75"></ellipse><ellipse class="cls-7" cx="1279.94" cy="1468.47" rx="375.16" ry="378.34"></ellipse><ellipse class="cls-8" cx="1279.94" cy="1468.47" rx="314.13" ry="316.79"></ellipse><rect class="cls-9" x="556.55" y="2342.81" width="1405.49" height="204.56"></rect><rect class="cls-9" x="1504.31" y="2350.57" width="409.26" height="196.8"></rect><rect class="cls-7" x="1637.14" y="2380.17" width="148.98" height="31.35"></rect><rect class="cls-9" x="556.55" y="559.74" width="1405.49" height="305.93"></rect><rect class="cls-5" x="1612.01" y="643.91" width="296.18" height="111.33"></rect><rect class="cls-5" x="602.32" y="605.9" width="503.5" height="225.37"></rect><path class="cls-5" d="M1350.84,717.23c0,48-38.57,86.89-86.16,86.89s-86.16-38.9-86.16-86.89,38.58-86.89,86.16-86.89S1350.84,669.24,1350.84,717.23Z"></path><path class="cls-10" d="M1315.84,717.23c0,28.49-22.91,51.59-51.16,51.59s-51.16-23.1-51.16-51.59,22.91-51.59,51.16-51.59S1315.84,688.74,1315.84,717.23Z"></path><path class="cls-11" d="M1279.94,1151.68a313,313,0,0,0-52,4.41L970.18,1416a320.3,320.3,0,0,0-4.37,52.45,317,317,0,0,0,58.45,183.92l438.05-441.77A310.79,310.79,0,0,0,1279.94,1151.68Z"></path><path class="cls-11" d="M1594.06,1468.47a319.19,319.19,0,0,0-13.66-92.56l-392.25,395.58a311.76,311.76,0,0,0,91.79,13.77l314.12-316.79Z"></path><path class="cls-10" d="M1946.24,404q7.21,28.83,14.42,57.66a60,60,0,0,1-34.34,6.25,58.53,58.53,0,0,1-21.15-6.9q-3.23-24.48-6.45-49l42.81-24.27Z"></path><path class="cls-12" d="M1855.44,351.44s-16.16-9.82-11.75-25.73c7-25.25,81.56-52.41,115.53-17.82,23.74,24.17,23.7,74.94-10.77,111Z"></path><path class="cls-13" d="M1899.14,415.22l7.33-7.58,2.72-1.54,1.61-.52,17.61.2,7.24,10.59a39.54,39.54,0,0,1-11.12,24.17,38.81,38.81,0,0,1-20.64,10.73Q1901.52,433.24,1899.14,415.22Z"></path><path class="cls-10" d="M1855.44,351.44a181.5,181.5,0,0,0,3.06,21.11c1.24,5.91,1.91,8.85,3.29,14.91,4.69,20.62,3.55,21.54,6.31,31.4,4.49,16,6.8,24.3,13.86,27.59,7.88,3.67,17.08-1,30.22-7.7,9.22-4.7,16.22-8.26,21.57-16.5a40.75,40.75,0,0,0,6.2-23.82s3.42,4.61,6.54.15,6.88-31.18-2.82-30.77S1933.15,382,1933.15,382l-8-4.46s-.44-30.15-14.26-34.61a13.48,13.48,0,0,0-7.48,0C1892.5,345.5,1877.42,348.23,1855.44,351.44Z"></path><path class="cls-10" d="M1705.11,546.67q.83,13.73,1.64,27.43a5.39,5.39,0,1,0,10.74-.84q.48-13.85,1-27.69C1710.14,539.83,1705.11,546.67,1705.11,546.67Z"></path><path class="cls-10" d="M1691.94,545.44l.36,26.19c-.21,3.63,2.66,6.47,5.64,6.37a5.74,5.74,0,0,0,5.2-4.81q1-13.26,2-26.52C1698.7,540,1691.94,545.44,1691.94,545.44Z"></path><path class="cls-10" d="M1680.7,544.34c-.06,7.33-.09,15.51-.06,24.4a5.32,5.32,0,0,0,9.84,1q.72-12.18,1.46-24.35A9.67,9.67,0,0,0,1680.7,544.34Z"></path><path class="cls-10" d="M1718.46,545.57q1.77,13.78,3.53,27.55a5.22,5.22,0,0,0,10.35-1.28q-.58-13.8-1.16-27.58C1723.19,540.76,1718.46,545.57,1718.46,545.57Z"></path><path class="cls-13" d="M800.54,1715.78c-3.87,1.23-7.89,2.47-12.11,3.71-11.26,3.32-17.75,4.87-21.8,1.45a8.37,8.37,0,0,1-1.79-2.11c-4.78,2.22-9.47,4.27-14.1,6.22q-5.19-16.18-10.39-32.36a90.28,90.28,0,0,0,11.65-.14c3.13-.24,6-.63,8.66-1.1a38,38,0,0,1,3.81-10c3.23-5.77,4.83-5,11.33-13.17,4.13-5.22,6.27-9.07,9.8-9a3.43,3.43,0,0,1,2.3.71c3.21,3-4.18,15.75-6.91,20.26,6.32-2.12,13-4.1,19.82-6,5.71,4.87,2.61,10.44,2.61,10.44v0l.08,0h.8c5.79,4.93,1.6,10,1.6,10l-.32.07v0l.31-.11a7.25,7.25,0,0,1,3.56,9.57l-1.73.45s0,.08,0,.12l1.71-.57.35.25a5.24,5.24,0,0,1-1.88,9.19Z"></path><path class="cls-14" d="M496.91,1665.43c2.46,6.57,8.93,26.45,1.34,49.34a72.23,72.23,0,0,1-16,26.66c13.35,10.71,32.44,25.62,56,42.67,63.32,45.82,77.52,48.17,88,48,22.1-.36,38.29-12.69,70.66-37.33a398.43,398.43,0,0,0,65.34-62.67q-5.34-27.33-10.67-54.67-56.67,28.66-113.33,57.34c-11.55-8.64-20.77-16.32-27.34-22-29.93-25.92-36-37.43-54.66-42-1.35-.33-10-1.11-27.34-2.67C515.42,1666.89,504.34,1666,496.91,1665.43Z"></path><path class="cls-15" d="M525.58,1728.1l34-48.67c25.33,36,34,104,56.67,120,19.16,13.53,93.1-23,115.51-34.58a398.68,398.68,0,0,1-34.85,29.92c-32.37,24.64-48.56,37-70.66,37.33-9.67.16-22.55-1.86-74.28-38.21Z"></path><path class="cls-16" d="M274.36,1726c-7.43,11.57-8.3,28.62-.69,42,6.63,11.63,21,22.72,32.66,19.8,9.8-2.45,8.42-12.41,19.93-17.34,13.79-5.9,22.37,5.61,35.46-.53,10.4-4.88,7.63-13.41,18.21-18.85,13.64-7,23.08,4.64,36.22-1.38,13.37-6.13,8.11-20.26,22.36-30.39,15.89-11.31,30.2.71,42.91-10.67,10-9,4-19.07,14.13-33.12,10.67-14.8,24.1-12.94,35.73-21.44,29.29-21.41,35.29-99.87-8.41-139-3.17-2.83-26.92-23.48-60.15-22.25-47.57,1.76-89.36,47.42-97.16,87.35-2.42,12.35-1.2,22.23-9.11,36-11.74,20.48-25,17.22-36.54,36.09-13.45,22-1.28,35.87-16.18,52.6C292.57,1717.41,282.7,1713,274.36,1726Z"></path><path class="cls-10" d="M599.75,2636.75q3.59-43.2,7.18-86.41l-46-3.16q7,45.9,13.94,91.78a14.73,14.73,0,0,0,15.48,6.15C596.75,2643.45,599.42,2637.51,599.75,2636.75Z"></path><path class="cls-14" d="M628.33,2675.62c13.63.83,23.69,1.44,37.71.78a8.14,8.14,0,0,0-2.24-2.59c-17.36-11.3-30.82-20-39.39-25.85l-13.18-7.43c-6.43-3.69-9.72-5.68-13.3-4.63-2.56.74-2.33,2.18-6,3.82-1.74.77-5.8,2.58-10.23,1.1a12.61,12.61,0,0,1-6.64-5.63s-15.59,7.49-10.47,31.13c3.52.92,8.54,2.16,14.62,3.41C598.82,2673.78,614.07,2674.76,628.33,2675.62Z"></path><path class="cls-7" d="M666,2676.4c-14,.66-24.08,0-37.71-.78-14.26-.86-29.51-1.84-49.14-5.89-6.08-1.25-11.1-2.49-14.62-3.41,0,0-6.86,7.09,2.89,13.61l98.45,4.15a8,8,0,0,0,.87-5.8A7.84,7.84,0,0,0,666,2676.4Z"></path><path class="cls-10" d="M406.28,2640l23-83.62-44.69-11.58q-1.59,46.39-3.19,92.78a14.71,14.71,0,0,0,14.08,8.89C402.1,2646.07,405.82,2640.73,406.28,2640Z"></path><path class="cls-14" d="M435,2675.62c13.62.83,23.69,1.44,37.71.78a8.14,8.14,0,0,0-2.24-2.59c-17.37-11.3-30.82-20-39.4-25.85l-13.18-7.43c-6.43-3.69-9.71-5.68-13.3-4.63-2.55.74-2.32,2.18-6,3.82-1.74.77-5.81,2.58-10.23,1.1a12.57,12.57,0,0,1-6.64-5.63s-15.59,7.49-10.48,31.13c3.53.92,8.55,2.16,14.63,3.41C405.49,2673.78,420.74,2674.76,435,2675.62Z"></path><path class="cls-7" d="M472.71,2676.4c-14,.66-24.09,0-37.71-.78-14.26-.86-29.51-1.84-49.14-5.89-6.08-1.25-11.1-2.49-14.63-3.41,0,0-6.85,7.09,2.9,13.61l98.45,4.15a8.07,8.07,0,0,0,.87-5.8A7.84,7.84,0,0,0,472.71,2676.4Z"></path><path class="cls-17" d="M554.91,2620.1c-10.68-70.26-19.32-144.69-25-223q-3.24-44.66-5-87.67-22.95-77.55-44-161.33c-22.81-91.35-41.19-179.14-56-262.67l147-3.33c6.17,26.47,15.26,65.92,26,114,15,67.16,22.51,100.75,27,126,12.69,71.32,13.41,125.83,14,189.05.71,76.28-3.08,181.16-22,307.95Z"></path><path class="cls-16" d="M459.41,1850.05l114.84,36.72a2923.61,2923.61,0,0,1-50.72,327.9c-8.29,39-16,71.06-23.8,103.69-30.22,125.94-58.46,227.7-78.82,297.74l-50-7c2.44-210.56,4.06-289.35,5.1-321,.29-8.53,1.12-42.55,2-89.31.24-12.89.36-25.79.24-38.69-.95-95.61-7.19-131.36,9.33-186.67a306.6,306.6,0,0,1,41.33-86.66A289,289,0,0,1,459.41,1850.05Z"></path><path class="cls-14" d="M418.36,1688.15l31.12-12.2,63.91-10.11,44.86,5.59c5.75,23.23,11.22,41.74,15.19,54.46,7.1,22.71,11.22,32.6,10.38,48.93-.51,10-2.69,19.52-5,29.64a290.93,290.93,0,0,1-9.22,31.89q2.71,26.34,5.16,53.28a69.08,69.08,0,0,1-11.07,7.33c-17.58,9.34-35,8.62-49.67,7.41-38-3.13-73.71-10.9-90.45-14.82l7.77-86a135.1,135.1,0,0,0-13-115.42Z"></path><path class="cls-18" d="M645.75,2155.52l-.23.12.23-.79Z"></path><path class="cls-15" d="M431.19,1683.12l69.06-11.69,36.88-2.63.43,0-12.65,62.58-12-14.66-10,20L419,1689.16l-.61-1Z"></path><path class="cls-10" d="M507.71,1643.36c2.68,10.33,7.18,22.33,7.18,22.33l5.27,1.16a54.47,54.47,0,0,1-3.45,21.45c-2.72,7.16-4.91,12.52-10.18,16.14-15.59,10.7-37.62-5.55-40.54-7.7A52.51,52.51,0,0,1,449.48,1676q4.2-12.4,8.1-25.74c5.21-17.87,9.35-35,12.66-51.23Z"></path><path class="cls-13" d="M495.58,1660.21c7.94,1.53,14.37,3,18.5,4-.15-.71-.36-1.47-.52-2.18-1.16-3.29-2.9-8.38-4.44-13.62l-45.54-18.7c-2.68,14.11,1.25,20.07,3.5,22.5C471.31,1656.76,476.79,1656.58,495.58,1660.21Z"></path><path class="cls-10" d="M517.52,1545c13.17,8.13,24.2,90,21.25,101.23s-23.83,10.94-36.86,11.5-29.8-8.52-33.5-12.6-2.92-19.62-2.92-19.62-10.53,7-12.86-3.48,2.86-27.42,7.53-22l4.68,5.48S503.08,1536.12,517.52,1545Z"></path><path class="cls-5" d="M538.07,1622l-23.76,3.73c0,.11,0,.21,0,.31a13.71,13.71,0,0,0,24.59,6C538.74,1629,538.45,1625.64,538.07,1622Z"></path><path class="cls-14" d="M517.25,1666.1l-9,36,16.66,17.67q6.33-25.5,12.67-51Z"></path><path class="cls-14" d="M449.48,1676l60.1,26.48q-4,12.16-8,24.34l-79.33-41a97.14,97.14,0,0,1,10-4.67A99.74,99.74,0,0,1,449.48,1676Z"></path><path class="cls-10" d="M1901.14,809.12c-2.22-.46-3.6-.17-13.7,2.9a164.36,164.36,0,0,0-16.66,6.62c-1.73.76-4.36,2-4.79,4.24a4.38,4.38,0,0,0,1.06,3.55,5.4,5.4,0,0,0,5.46,1.52l14.26-4.13,23.54-9A16.88,16.88,0,0,0,1901.14,809.12Z"></path><path class="cls-19" d="M1908,993.33q1.26-3.6,2.35-7.28v0a153.6,153.6,0,0,0,3.64-15.09h0c.44-2.35.84-4.71,1.17-7.09v0c.33-2.33.62-4.68.84-7,0-.51.08-1,.12-1.52.16-1.91.32-3.81.41-5.74q.2-3.75.19-7.55c0-2.78-.08-5.54-.22-8.29,0-.33-.06-.67-.08-1-.14-2.45-.33-4.87-.58-7.28,0-.14,0-.27,0-.4a154.67,154.67,0,0,0-2.55-15.77h0v0c-1-4.8-2.27-9.52-3.73-14.13l0-.09c-.72-2.27-1.48-4.53-2.3-6.76s-1.62-4.23-2.49-6.32c-1.06-2.53-2.18-5-3.37-7.51a.05.05,0,0,1,0,0,156.83,156.83,0,0,0-11.57-20h0q-4.11-6-8.76-11.64l-.26-.3c-1.46-1.75-3-3.48-4.49-5.17s-3.1-3.32-4.7-4.93q-3-3-6.17-5.88c-.31-.28-.64-.55-1-.83-1.74-1.55-3.51-3.06-5.33-4.53l-.55-.44c-2-1.61-4-3.16-6.11-4.67l-.1-.06q-6.24-4.53-12.93-8.42h0c-2.08-1.21-4.2-2.38-6.34-3.5l-.06,0q-3.2-1.66-6.48-3.19l-.08,0q-6.75-3.11-13.81-5.59l0,0a155,155,0,0,0-36.57-8c-.48,0-1-.07-1.45-.11-1.93-.17-3.86-.33-5.81-.42q-3.56-.18-7.16-.18h-.38c-2.79,0-5.55.08-8.29.22l-.92.07c-2.47.15-4.93.34-7.37.6l-.33,0A154.45,154.45,0,0,0,1707.4,796c-1.84.68-3.65,1.41-5.45,2.15-2.83,1.17-5.63,2.39-8.38,3.72l0,0a155.68,155.68,0,0,0-31.61,20.33l-.39.33c-1.72,1.44-3.42,2.91-5.08,4.42s-3.56,3.31-5.28,5l0,0h0c-1.89,1.89-3.72,3.84-5.51,5.82-.29.32-.55.64-.84,1-1.54,1.75-3.06,3.52-4.52,5.33-.15.18-.3.37-.44.56-1.61,2-3.16,4-4.66,6.1l-.08.11c-1.6,2.21-3.13,4.45-4.61,6.74h0q-2,3-3.79,6.17v0q-1.82,3.12-3.5,6.33l0,.08q-1.65,3.18-3.17,6.45l-.06.12c-1,2.19-2,4.39-2.88,6.63h0q-1.43,3.54-2.7,7.15v0q-1.26,3.61-2.35,7.3h0a153.6,153.6,0,0,0-3.64,15.09h0q-.66,3.51-1.17,7.08v0c-.33,2.34-.62,4.68-.84,7,0,.52-.08,1.05-.12,1.58-.16,1.88-.32,3.77-.41,5.68q-.19,3.75-.19,7.56c0,2.78.08,5.54.22,8.28,0,.34.06.67.08,1,.14,2.44.33,4.87.59,7.28,0,.13,0,.26,0,.39a153.68,153.68,0,0,0,6.27,29.94l0,.12c.72,2.26,1.47,4.5,2.29,6.72q1.14,3.1,2.42,6.15c1.09,2.59,2.23,5.16,3.44,7.68l.06.11a155.05,155.05,0,0,0,11.53,19.89h0l0,0q4.11,6,8.74,11.61l.24.28c1.47,1.76,3,3.5,4.51,5.2s3.32,3.57,5.05,5.29l0,0c1.88,1.88,3.81,3.7,5.79,5.48l1,.85q2.61,2.31,5.32,4.52l.55.43c2,1.61,4,3.16,6.12,4.67l.09.07q6.24,4.52,12.93,8.42h0c2.08,1.22,4.19,2.38,6.33,3.5l.07,0q3.2,1.66,6.46,3.18l.12,0q3.27,1.52,6.63,2.88h0q3.53,1.42,7.14,2.7h0c2.41.85,4.83,1.63,7.29,2.35h0a155.19,155.19,0,0,0,22.19,4.81h0c2.33.32,4.68.61,7,.84l1.52.11c1.9.16,3.81.32,5.73.41q3.75.2,7.56.2,4.15,0,8.28-.23l1-.07c2.45-.15,4.88-.34,7.29-.59l.36-.05a154.36,154.36,0,0,0,15.8-2.55h0c4.8-1,9.53-2.26,14.16-3.73l.08,0q3.42-1.08,6.76-2.31c1.93-.7,3.82-1.46,5.7-2.24,2.75-1.14,5.47-2.34,8.13-3.62l.08,0a156.17,156.17,0,0,0,31.57-20.31l.28-.25c1.76-1.47,3.5-3,5.2-4.51s3.57-3.32,5.29-5c1.89-1.89,3.72-3.83,5.51-5.82.29-.31.56-.64.84-1,1.54-1.74,3.06-3.51,4.52-5.32.16-.19.3-.38.45-.57,1.6-2,3.15-4,4.66-6.1l.07-.1c1.6-2.21,3.13-4.46,4.61-6.75h0c1.31-2,2.57-4.08,3.79-6.16l0,0q1.82-3.11,3.48-6.31a.31.31,0,0,0,.05-.1c1.11-2.12,2.17-4.26,3.18-6.44a.61.61,0,0,1,.05-.12c1-2.18,2-4.38,2.88-6.62h0v0c1-2.35,1.85-4.72,2.69-7.13Z"></path><path class="cls-14" d="M1926.86,993.33q1.26-3.6,2.34-7.28v0a153.57,153.57,0,0,0,3.63-15.09h0q.67-3.53,1.18-7.09v0q.49-3.5.84-7c.05-.51.07-1,.11-1.52.17-1.91.33-3.81.42-5.74.12-2.5.19-5,.19-7.55q0-4.17-.23-8.29c0-.33,0-.67-.07-1-.15-2.45-.33-4.87-.59-7.28,0-.14,0-.27,0-.4a154.65,154.65,0,0,0-2.54-15.77h0v0c-1-4.8-2.26-9.52-3.72-14.13l0-.09c-.72-2.27-1.48-4.53-2.3-6.76s-1.62-4.23-2.49-6.32c-1.07-2.53-2.19-5-3.38-7.51l0,0a155.65,155.65,0,0,0-11.57-20h0q-4.12-6-8.76-11.64l-.26-.3c-1.46-1.75-3-3.48-4.49-5.17s-3.1-3.32-4.71-4.93q-3-3-6.16-5.88c-.32-.28-.65-.55-1-.83-1.75-1.55-3.52-3.06-5.33-4.53l-.56-.44c-2-1.61-4-3.16-6.11-4.67l-.09-.06q-6.26-4.53-12.94-8.42h0q-3.12-1.82-6.34-3.5l-.06,0q-3.19-1.66-6.48-3.19l-.08,0q-6.73-3.11-13.81-5.59l0,0a155.18,155.18,0,0,0-36.58-8c-.48,0-1-.07-1.45-.11-1.93-.17-3.85-.33-5.8-.42q-3.55-.18-7.16-.18H1780c-2.78,0-5.54.08-8.29.22l-.91.07c-2.48.15-4.94.34-7.38.6l-.32,0a154.64,154.64,0,0,0-36.85,8.61c-1.83.68-3.64,1.41-5.44,2.15-2.84,1.17-5.64,2.39-8.39,3.72l0,0a155.4,155.4,0,0,0-31.61,20.33l-.39.33q-2.6,2.16-5.09,4.42c-1.8,1.64-3.56,3.31-5.28,5l0,0h0c-1.89,1.89-3.72,3.84-5.51,5.82l-.83,1c-1.55,1.75-3.06,3.52-4.53,5.33-.15.18-.29.37-.44.56-1.6,2-3.15,4-4.66,6.1a.44.44,0,0,1-.08.11c-1.59,2.21-3.13,4.45-4.61,6.74h0c-1.32,2-2.58,4.09-3.8,6.17v0q-1.82,3.12-3.49,6.33a.3.3,0,0,0,0,.08q-1.66,3.18-3.18,6.45a.61.61,0,0,0,0,.12c-1,2.19-2,4.39-2.88,6.63h0q-1.44,3.54-2.7,7.15v0c-.84,2.41-1.63,4.84-2.35,7.3h0A153.57,153.57,0,0,0,1627.2,913h0q-.67,3.51-1.18,7.08v0c-.33,2.34-.61,4.68-.84,7,0,.52-.07,1.05-.12,1.58-.16,1.88-.32,3.77-.41,5.68-.12,2.5-.19,5-.19,7.56q0,4.17.23,8.28c0,.34,0,.67.07,1,.15,2.44.33,4.87.59,7.28,0,.13,0,.26.05.39a155.16,155.16,0,0,0,6.27,29.94.56.56,0,0,1,0,.12q1.08,3.39,2.29,6.72c.76,2.07,1.58,4.12,2.43,6.15,1.08,2.59,2.22,5.16,3.44,7.68l.06.11a153.89,153.89,0,0,0,11.53,19.89h0l0,0q4.11,6,8.74,11.61l.24.28c1.47,1.76,3,3.5,4.51,5.2s3.33,3.57,5,5.29l0,0c1.87,1.88,3.81,3.7,5.78,5.48l1,.85q2.61,2.31,5.32,4.52l.56.43c2,1.61,4,3.16,6.11,4.67l.09.07q6.24,4.52,12.94,8.42h0c2.08,1.22,4.19,2.38,6.33,3.5l.08,0c2.12,1.11,4.28,2.17,6.46,3.18l.11,0q3.29,1.52,6.63,2.88h0q3.54,1.42,7.14,2.7h.06q3.6,1.28,7.28,2.35h0a155.32,155.32,0,0,0,22.2,4.81h0c2.34.32,4.69.61,7,.84l1.52.11c1.9.16,3.81.32,5.73.41q3.76.2,7.56.2,4.17,0,8.28-.23l1-.07c2.44-.15,4.87-.34,7.29-.59l.36-.05a155.25,155.25,0,0,0,15.8-2.55h0c4.81-1,9.53-2.26,14.16-3.73l.09,0c2.27-.72,4.53-1.49,6.76-2.31,1.92-.7,3.81-1.46,5.7-2.24,2.74-1.14,5.46-2.34,8.12-3.62l.08,0a155.62,155.62,0,0,0,31.57-20.31l.28-.25c1.77-1.47,3.51-3,5.2-4.51s3.57-3.32,5.3-5c1.89-1.89,3.72-3.83,5.51-5.82.28-.31.55-.64.83-1q2.33-2.61,4.53-5.32l.44-.57c1.61-2,3.16-4,4.66-6.1a.61.61,0,0,0,.07-.1q2.4-3.31,4.62-6.75h0c1.31-2,2.57-4.08,3.78-6.16l0,0q1.82-3.11,3.49-6.31l0-.1c1.1-2.12,2.16-4.26,3.17-6.44a.61.61,0,0,0,0-.12c1-2.18,2-4.38,2.88-6.62h0v0c.95-2.35,1.85-4.72,2.69-7.13C1926.85,993.37,1926.85,993.35,1926.86,993.33Z"></path><path class="cls-19" d="M1898.78,983.51c.68-1.94,1.31-3.91,1.9-5.89h0a123.4,123.4,0,0,0,2.94-12.21h0q.54-2.85,1-5.73v0q.39-2.82.68-5.7c0-.4,0-.82.09-1.22.13-1.54.26-3.08.33-4.64.1-2,.16-4.06.16-6.11,0-2.25-.07-4.48-.18-6.7,0-.28-.05-.54-.07-.82-.11-2-.26-3.94-.47-5.89,0-.1,0-.21,0-.31a124.27,124.27,0,0,0-2.06-12.76h0v0c-.84-3.88-1.83-7.69-3-11.43a.14.14,0,0,0,0-.06c-.58-1.84-1.2-3.67-1.86-5.47s-1.31-3.43-2-5.11c-.87-2.06-1.77-4.08-2.74-6.08v0a125.66,125.66,0,0,0-9.36-16.15h0c-2.22-3.24-4.58-6.39-7.09-9.41-.06-.08-.14-.16-.21-.24-1.18-1.42-2.38-2.82-3.63-4.18s-2.51-2.69-3.8-4q-2.43-2.44-5-4.76c-.25-.23-.52-.44-.78-.67-1.41-1.25-2.84-2.48-4.31-3.66l-.45-.36c-1.61-1.3-3.26-2.55-4.94-3.77l-.08-.05a123.33,123.33,0,0,0-10.46-6.81h0c-1.69-1-3.4-1.93-5.13-2.83l-.05,0c-1.73-.9-3.47-1.76-5.24-2.58l-.07,0q-5.44-2.52-11.17-4.52h0a125,125,0,0,0-29.58-6.48l-1.17-.09c-1.56-.13-3.12-.26-4.69-.34-1.92-.09-3.86-.14-5.8-.14H1780c-2.25,0-4.48.06-6.71.18l-.73.06q-3,.17-6,.48l-.26,0a125.08,125.08,0,0,0-29.8,7c-1.49.54-3,1.13-4.41,1.73-2.29.95-4.56,1.94-6.78,3l0,0a126,126,0,0,0-25.56,16.44c-.11.09-.21.19-.32.27-1.39,1.17-2.77,2.35-4.11,3.58s-2.88,2.68-4.27,4.07h0c-1.52,1.53-3,3.1-4.45,4.71-.23.25-.45.52-.68.78q-1.87,2.12-3.66,4.3l-.36.46c-1.29,1.61-2.55,3.26-3.76,4.93l-.07.09c-1.29,1.79-2.53,3.6-3.73,5.45h0c-1.06,1.64-2.09,3.3-3.07,5v0c-1,1.68-1.92,3.38-2.82,5.12l0,.06q-1.34,2.58-2.57,5.22l0,.1q-1.23,2.64-2.33,5.36h0q-1.15,2.85-2.18,5.78v0q-1,2.93-1.9,5.91h0a123.4,123.4,0,0,0-2.94,12.21h0c-.35,1.89-.67,3.8-.94,5.73v0c-.26,1.89-.49,3.78-.67,5.7,0,.42-.06.84-.1,1.27-.13,1.53-.26,3-.33,4.59-.1,2-.16,4.07-.16,6.12,0,2.24.07,4.48.18,6.7,0,.27,0,.54.07.81.11,2,.26,3.94.47,5.89,0,.11,0,.21,0,.32A125.13,125.13,0,0,0,1660,979.9l0,.1c.58,1.83,1.19,3.64,1.85,5.43s1.27,3.33,2,5c.88,2.1,1.8,4.17,2.78,6.21a.41.41,0,0,1,0,.09,125.93,125.93,0,0,0,9.33,16.09h0l0,0c2.21,3.24,4.57,6.38,7.07,9.39l.19.23c1.19,1.42,2.4,2.83,3.65,4.2s2.69,2.89,4.08,4.28l0,0c1.52,1.52,3.08,3,4.68,4.43l.79.68q2.1,1.88,4.3,3.66l.45.35q2.42,2,4.94,3.78l.08.05a123.33,123.33,0,0,0,10.46,6.81h0q2.52,1.48,5.12,2.83l.06,0q2.58,1.35,5.22,2.58l.1,0c1.77.82,3.55,1.59,5.36,2.33h0c1.9.78,3.83,1.5,5.77,2.19h0c1.94.68,3.91,1.31,5.89,1.9h0a124,124,0,0,0,18,3.89h0q2.84.4,5.7.68l1.23.1c1.54.13,3.08.26,4.64.33q3,.15,6.11.15,3.38,0,6.7-.18l.81-.06q3-.16,5.9-.47l.29,0a125.1,125.1,0,0,0,12.78-2.06h0q5.84-1.24,11.45-3l.07,0c1.84-.58,3.67-1.2,5.47-1.86,1.56-.57,3.09-1.19,4.61-1.82,2.22-.92,4.42-1.89,6.58-2.93l.06,0a126.13,126.13,0,0,0,25.53-16.43l.23-.19c1.43-1.19,2.83-2.4,4.2-3.65s2.89-2.69,4.29-4.09,3-3.1,4.45-4.7c.23-.26.45-.53.68-.78,1.25-1.41,2.47-2.84,3.66-4.31l.36-.46c1.3-1.61,2.55-3.25,3.77-4.93l.06-.09q1.93-2.67,3.73-5.45h0q1.59-2.46,3.07-5v0q1.47-2.52,2.82-5.11l0-.08c.9-1.71,1.75-3.45,2.57-5.21l0-.09c.82-1.77,1.59-3.55,2.33-5.36h0v0q1.15-2.84,2.18-5.76Z"></path><path class="cls-14" d="M1810.54,926.72c-18-8.27-32-15.53-32-22,0-2,1.5-3.64,4.49-3.64q6.29,0,9,7.27c.6,1.62,1.8,2.22,3.59,2.22l45.78-1.42c2.39,0,3.59-1.2,3.59-2.62,0-22-20.93-41.69-55.34-44.77h0V838.25h-20.26v23.64c-33.42,3.58-52.15,23.75-52.15,42.43,0,13.73,9.88,28.86,29.93,39.77s36.79,19.78,36.79,24.62c0,4.64-2.69,6.46-6.88,6.46-7.18,0-12.26-8.68-13.46-16.75-.3-1.83-1.5-2.63-3.6-2.63l-41.28,1.41c-2.39,0-3.59,1-3.59,2,0,29.26,17.19,50.24,54.24,53.92h0v25.63h20.26v-25.38c34.37-2.77,55-23.18,55-48.32C1844.64,950.14,1830,935.61,1810.54,926.72Z"></path><path class="cls-14" d="M1810.54,926.72c-18-8.27-32-15.53-32-22,0-2,1.5-3.64,4.49-3.64q6.29,0,9,7.27c.6,1.62,1.8,2.22,3.59,2.22l45.78-1.42c2.39,0,3.59-1.2,3.59-2.62,0-22-20.93-41.69-55.34-44.77h0V838.25h-20.26v23.64c-33.42,3.58-52.15,23.75-52.15,42.43,0,13.73,9.88,28.86,29.93,39.77s36.79,19.78,36.79,24.62c0,4.64-2.69,6.46-6.88,6.46-7.18,0-12.26-8.68-13.46-16.75-.3-1.83-1.5-2.63-3.6-2.63l-41.28,1.41c-2.39,0-3.59,1-3.59,2,0,29.26,17.19,50.24,54.24,53.92h0v25.63h20.26v-25.38c34.37-2.77,55-23.18,55-48.32C1844.64,950.14,1830,935.61,1810.54,926.72Z"></path><path class="cls-10" d="M1919,807.69c-2.88,2.39-5.85,4.79-8.7,7.18l-23.54,9L1851,845a4.36,4.36,0,0,0,3.81,7.83l20.89-10.07-18.94,13.29A4.5,4.5,0,1,0,1861,864L1881,852.62q-8.84,6.72-17.66,13.45a4.79,4.79,0,0,0-1,5.82,4.89,4.89,0,0,0,7,1.05l18.5-11.66-16.38,12.1a4.44,4.44,0,0,0,5.21,6.41c20.63-13.32,35.71-23.6,41-27.48a19.23,19.23,0,0,0,5.72-6.32,18.35,18.35,0,0,0,2.27-8.18c3-1.59,6.26-3.38,9.73-5.28Z"></path><path class="cls-3" d="M2116.06,742.35c27.77-41.92,19.66-91.6,16-114-11.16-68.31-58.75-134.79-126.13-158.44a167.91,167.91,0,0,0-45.85-9.11A252.19,252.19,0,0,1,2017,633.36c3.75,11.63,7.66,30,2.6,50.57-4.32,17.53-13.61,30.14-38.07,55.37a894.84,894.84,0,0,1-69,64l20.83,40c16.85-5.87,41.66-15.17,70.78-28.67C2065.75,786.07,2096.56,771.78,2116.06,742.35Z"></path><path class="cls-20" d="M795.15,1664l-52.27-20.3c-1.48,1.94-17.75,22.44-44.91,21.26-23.79-1-37.61-17.9-39.64-20.46l-55,21.74a175.69,175.69,0,0,1,7.67,36.6,182,182,0,0,1-11.51,83.12q10.88,55,21.74,110Q538.14,2089.61,455,2283.33c8.22,13.06,22.38,30.78,44.75,38.36,25.55,8.67,37.56-4.11,74.16,0,35.6,4,34.85,17.27,70.33,21.74,32.79,4.13,34.81-7,79.27-7.67,48.51-.69,54.26,12.49,85.67,5.11,32.43-7.61,27.13-21.85,61.38-30.68,37.91-9.79,60.13,3.6,85.67-14.07a68.15,68.15,0,0,0,20.46-23L779.8,1893.34q10.88-58.17,21.74-116.35a231.1,231.1,0,0,1-6.39-113Z"></path><path class="cls-10" d="M780,1647l-10.68,23.68a5.09,5.09,0,1,1-9.2-4.35q4.23-12.39,8.45-24.79C777.88,1639.24,780,1647,780,1647Z"></path><path class="cls-10" d="M767.3,1642.15Q762,1654,756.63,1665.83a5.1,5.1,0,1,1-9.21-4.35l8.46-24.79C765.16,1634.41,767.3,1642.15,767.3,1642.15Z"></path><path class="cls-10" d="M792.08,1650.32l-9.14,23a5.55,5.55,0,0,1-7.13,3.73,5.45,5.45,0,0,1-3-6Q776.43,1659,780,1647C787.92,1643.28,792.08,1650.32,792.08,1650.32Z"></path><path class="cls-10" d="M801.79,1652.61c-2,6.62-4.35,14-6.91,22a5,5,0,0,1-9.17-1.86q2.82-11.19,5.63-22.37A9.16,9.16,0,0,1,801.79,1652.61Z"></path><path class="cls-10" d="M634.24,1841.7a16.94,16.94,0,0,1,3.62-10.2c1.46-1.74,2.72-2.37,12.55-6.23a168.22,168.22,0,0,1,17.17-5.15c1.83-.47,4.64-1.15,6.39.36a4.41,4.41,0,0,1,1.37,3.44,5.38,5.38,0,0,1-3.34,4.57l-13.74,5.62,41.23-5.61a4.36,4.36,0,0,1,1.87,8.51l-22.62,5.06,23.09-1.33a4.5,4.5,0,1,1,1.53,8.86l-22.68,3.49,22.2-.42a4.81,4.81,0,0,1,4.4,3.95,4.89,4.89,0,0,1-4.85,5.18l-21.75,2.33,20.35-.67a4.44,4.44,0,0,1-.11,8.26c-24.44,2.36-42.64,3.66-49.17,3.87a19.26,19.26,0,0,1-8.42-1.4,18.26,18.26,0,0,1-6.85-5c-3.31.59-7,1.24-10.9,1.9L623,1841.47C626.71,1841.56,630.52,1841.6,634.24,1841.7Z"></path><path class="cls-15" d="M443.58,1795.71a295.38,295.38,0,0,1-1-48c.83-13.38,2.4-23.13,3.85-46.22.63-10,1-18.29,1.15-23.78a122.73,122.73,0,0,0-30.5,10.5c-7.13,3.56-28.65,14.61-44,37.18-15,22-16.9,44.19-18,59-4.46,60,25,122.28,41.54,152.21A22.6,22.6,0,0,0,420.1,1948c18.46-3.08,37.83-7,57.94-12.07a747.64,747.64,0,0,0,157.16-58.84c-7.6-25.45-5.78-19.37-13.37-44.83L447,1852.39Q445.31,1824.05,443.58,1795.71Z"></path><path class="cls-21" d="M2179.88,1777.14a4.86,4.86,0,0,1,5.68-3.07l24,2.38-23.36-6.26a4.54,4.54,0,0,1,2.31-8.78l42.75,7.62-14.09-6.44a5.62,5.62,0,0,1-3.28-4.91,4.56,4.56,0,0,1,1.58-3.53c1.89-1.5,4.79-.67,6.68-.1a175,175,0,0,1,17.67,6.11c10.08,4.45,11.37,5.17,12.81,7A17.62,17.62,0,0,1,2256,1778a368.43,368.43,0,0,0,144.76-10.09c1.49-1.06,3-2.16,4.47-3.33,18.56-14.5,30.35-32.91,37.94-50.38l74.49,73.17c-43.85,44.25-58.26,51.85-71.8,56-28,8.5-52.47,2.89-69.23-1.38-32.31-8.23-74.55-19.61-124.15-35.39a19.4,19.4,0,0,1-7.37,4.93,20,20,0,0,1-8.83,1.09c-6.8-.5-25.71-2.65-51.09-6.16a4.63,4.63,0,0,1,.24-8.61l21.19,1.58L2184,1796a5.11,5.11,0,0,1-4.83-5.62,5,5,0,0,1,4.76-3.92l23.12,1.39-23.49-4.61A4.9,4.9,0,0,1,2179.88,1777.14Z"></path><path class="cls-22" d="M2445,1711c10.68-18,20.61-33.08,28.69-44.82,10.61-15.41,27.93-25.35,46.63-25.23a62.25,62.25,0,0,1,36.85,12.28c1.12.84,2.21,1.71,3.27,2.62,24.1,20.69,25.25,57.82,4.12,81.54-16.77,18.82-31.77,34.56-44,47-1,1.05-2,2-3,3l-74.49-73.17Z"></path><path class="cls-10" d="M1530.88,1596.6A83.09,83.09,0,0,0,1473.2,1619l5.1,37.68a76.23,76.23,0,0,0,66.71-12.56Z"></path><path class="cls-20" d="M1450,1531.43c-15.8-14.23-16.39-21.56-15.09-25.29,5.61-16.25,60.36-9.47,65.36-8.85,29.54,3.68,38.08,12.51,40.53,15.28,8.61,9.73,10.11,21.51,10.82,27.14,2.06,16.19-3.19,28.67-7.38,39a106.72,106.72,0,0,1-22.19,34,40.54,40.54,0,0,1-10.36-18.89Z"></path><path class="cls-10" d="M1267.18,1815.93a17.69,17.69,0,0,0-2.87-10.93c-1.37-1.93-2.62-2.69-12.51-7.57a171.13,171.13,0,0,0-17.4-6.85c-1.86-.65-4.72-1.61-6.67-.19a4.57,4.57,0,0,0-1.73,3.46,5.62,5.62,0,0,0,3.07,5l13.8,7-42.38-9.44a4.55,4.55,0,0,0-2.69,8.68l23.08,7.25L1197,1809a4.7,4.7,0,1,0-2.36,9.08l23.26,5.61-23-2.37a5,5,0,0,0-4.92,3.72,5.11,5.11,0,0,0,4.6,5.81l22.4,4.33-21.1-2.48a4.63,4.63,0,0,0-.61,8.59c25.21,4.59,44,7.54,50.79,8.33a20.12,20.12,0,0,0,8.87-.71,19.33,19.33,0,0,0,7.57-4.62c3.39.91,7.17,1.9,11.17,2.93l5.3-30.56C1275,1816.43,1271.05,1816.15,1267.18,1815.93Z"></path><path class="cls-23" d="M1475,1659.5c-7.16,13.56-18.15,35.37-29.86,63.27-15.23,36.27-16.62,47-29.69,58-11.63,9.8-22.34,11.25-69.11,18.75-28.55,4.59-52.38,8.51-69.57,11.37q-3.63,19.38-7.28,38.77a806.4,806.4,0,0,0,126,12.27c42.79.74,56.47-2.55,68.75-8.24,13.13-6.07,26.6-15.78,65.87-68.73,13.51-18.21,30.87-42.62,50-72.43a151.41,151.41,0,0,0-105.17-53Z"></path><path class="cls-16" d="M2796.28,2594.15l10.56,14.69s-23.82,18.37-25.58,15.92l-12.91-18Z"></path><path class="cls-14" d="M2778.86,2667.22q-7.82.77-16.29,1.19c-8.32.4-16.24.47-23.69.29a6.19,6.19,0,0,1,.39-1.42,8.17,8.17,0,0,1,4.12-3.92c3-1.51,10.43-5.54,20.61-10.8,2.76-6.21,4.76-11.34,6.08-14.91,1.18-3.19,1.89-5.32,3.45-8.64,2.91-6.17,4.71-10,8.35-11.13,2.51-.79,3.11.51,7-.18,1.85-.33,6.18-1.09,9-4.74a12.4,12.4,0,0,0,2.34-8.28s16.92-2.45,25.75,19.75q-4.76,5.4-10.1,10.86A290.59,290.59,0,0,1,2778.86,2667.22Z"></path><path class="cls-7" d="M2739.69,2666.72c.44-.14.95.37,1,.44,1,.92,10.9,1,38.19-1a253,253,0,0,0,37-30.91q5.38-5.46,10.1-10.86s9.54,2,5.14,12.76l-46.1,33.9c-5.41.28-42.62,2.13-44.84.11a4.11,4.11,0,0,1-1.1-1.76C2738.8,2668.32,2739.07,2666.91,2739.69,2666.72Z"></path><path class="cls-16" d="M2308.8,2625.71l22.65-79,41.89,12.67q-21.59,38.34-43.18,76.68a13.94,13.94,0,0,1-15.79.25C2309.22,2632.65,2308.84,2626.49,2308.8,2625.71Z"></path><path class="cls-14" d="M2270.41,2650.57c-12.36-3.85-21.49-6.69-33.7-12a7.78,7.78,0,0,1,2.86-1.55c19.19-4.19,34.06-7.43,43.61-9.69l14.18-2.16c6.94-1.11,10.52-1.77,13.35.36,2,1.52,1.32,2.71,4.05,5.41,1.28,1.26,4.27,4.23,8.7,4.4a11.88,11.88,0,0,0,7.77-2.76s11.31,11.88-1.16,31.12c-3.44-.36-8.31-.95-14.11-1.88C2297.19,2658.84,2283.34,2654.59,2270.41,2650.57Z"></path><path class="cls-7" d="M2236.71,2638.6c12.21,5.28,21.34,8.12,33.7,12,12.93,4,26.78,8.27,45.55,11.28,5.8.93,10.67,1.52,14.11,1.88,0,0,3.69,8.59-7.14,11.1l-88.68-29.38a7.62,7.62,0,0,1,1.18-5.44A7.38,7.38,0,0,1,2236.71,2638.6Z"></path><path class="cls-24" d="M2806.36,2593.52q-35.81-81-70.64-168-22.23-55.68-42.38-109.88-8.41-68-15.7-138.14-13.76-133-21.88-259.54l-151.87,54.16c6,78.87,13.48,145.4,19.92,196,15.43,121.21,25.65,155.67,40,188.37,18.63,42.38,39.11,69.83,73,115.37A1175.52,1175.52,0,0,0,2764,2616.28Z"></path><path class="cls-25" d="M2658.2,1956.17a176.25,176.25,0,0,0-4-61.5L2442.09,1920c-29.9,111.43-58.14,230.76-83.19,357.53-22.66,114.69-40.56,224.67-54.65,329.18l50,17.07q38.4-83.51,82.54-170.85,34.89-68.85,70.15-133.36s33.65-61.45,139-316.52A172.43,172.43,0,0,0,2658.2,1956.17Z"></path><path class="cls-16" d="M2534.1,1596.6a83.09,83.09,0,0,0-57.68,22.37l5.1,37.68a76.23,76.23,0,0,0,66.71-12.56Z"></path><path class="cls-14" d="M2565,1604.79c-15,4.07-26.4,2.32-33,.59-28.74-7.58-50.45-37.35-55.6-75.24l-27.75-.57c-5.7-.12-8.94-1.9-11.82-4.42-4.36-3.8-7.21-10.53-6.27-15.13,3.47-17,61.06-17.52,75.54-17.66,42.73-.41,51.42,8.69,54.45,13,5.2,7.38,5.54,16.16,5,22.34Q2565.31,1566.23,2565,1604.79Z"></path><path class="cls-21" d="M2477.17,1624.53a17,17,0,0,1,7.68-3.84c.35-1.64.69-3.27,1-4.91a37.31,37.31,0,0,1,20.44-12.2,34.57,34.57,0,0,1,11.06-.41,38.78,38.78,0,0,1-3.72,21c-8.18,16.32-26,20.82-33.56,22Q2478.63,1635.36,2477.17,1624.53Z"></path><path class="cls-16" d="M2517.36,1591.76c5.14.94,8.11-.6,9.25-1.31,8.48-5.33,6.44-22.49.85-26.16a9.39,9.39,0,0,0-5.79-1.59,7.62,7.62,0,0,0-2.88,1c-5.45,3.18-7,12.09-7,12.09l-3.7-3.16c5.19-20.18-4.44-39.69-20-45.82-16.17-6.35-31.86,4.36-33.19,5.29-2,5.53-3.92,11.42-5.72,17.66-2.49,8.61-4.43,16.79-6,24.46-1.23,1-2.77,2.56-2.74,4.47,0,1.76,1.35,2.61,2.41,4.81,1.24,2.59,1.06,4.88,1,6.88-.1,8,1.77,21.21,3.13,27.61,1.81,8.51,2.72,12.77,5.38,15.42,11.82,11.78,41.87-4.47,53.46-10.74,5.18-2.79,12.36-7.28,13-13.59a57.35,57.35,0,0,0-.44-7.66C2518,1597.39,2517.65,1594.06,2517.36,1591.76Z"></path><path class="cls-5" d="M2463.89,1605.94a17,17,0,0,1-15.84,17c-.33-1.46-.68-3.06-1.07-4.89-.62-3-1.36-7.39-2-12.07Z"></path><path class="cls-1" d="M2661.64,1930.37l-222.5-.59a929.17,929.17,0,0,1,41.59-276.67,143.49,143.49,0,0,0,70.55-14.77c2.93,2.19,7.4,5.66,12.56,10.2,59.53,52.42,75,128.15,87.12,191.51A644.74,644.74,0,0,1,2661.64,1930.37Z"></path><path class="cls-10" d="M1793.06,2594.15l10.56,14.69s-23.82,18.37-25.58,15.92l-12.91-18Z"></path><path class="cls-20" d="M1775.63,2667.22q-7.8.77-16.28,1.19c-8.32.4-16.24.47-23.69.29a6.19,6.19,0,0,1,.39-1.42,8.17,8.17,0,0,1,4.12-3.92c2.95-1.51,10.42-5.54,20.6-10.8,2.77-6.21,4.77-11.34,6.09-14.91,1.18-3.19,1.89-5.32,3.45-8.64,2.91-6.17,4.71-10,8.35-11.13,2.51-.79,3.11.51,7-.18,1.85-.33,6.18-1.09,9-4.74a12.46,12.46,0,0,0,2.34-8.28s16.91-2.45,25.75,19.75q-4.76,5.4-10.1,10.86A290.64,290.64,0,0,1,1775.63,2667.22Z"></path><path class="cls-7" d="M1736.47,2666.72c.44-.14,1,.37,1,.44,1,.92,10.9,1,38.19-1a253,253,0,0,0,37-30.91q5.38-5.46,10.1-10.86s9.53,2,5.14,12.76l-46.1,33.9c-5.42.28-42.62,2.13-44.84.11a4.11,4.11,0,0,1-1.1-1.76C1735.58,2668.32,1735.85,2666.91,1736.47,2666.72Z"></path><path class="cls-10" d="M1305.58,2625.71l22.65-79,41.89,12.67q-21.58,38.34-43.18,76.68a13.94,13.94,0,0,1-15.79.25C1306,2632.65,1305.62,2626.49,1305.58,2625.71Z"></path><path class="cls-20" d="M1267.19,2650.57c-12.36-3.85-21.49-6.69-33.7-12a7.78,7.78,0,0,1,2.86-1.55c19.19-4.19,34.06-7.43,43.61-9.69l14.18-2.16c6.94-1.11,10.52-1.77,13.34.36,2,1.52,1.33,2.71,4.06,5.41,1.28,1.26,4.27,4.23,8.7,4.4a11.88,11.88,0,0,0,7.77-2.76s11.31,11.88-1.16,31.12c-3.44-.36-8.31-.95-14.11-1.88C1294,2658.84,1280.12,2654.59,1267.19,2650.57Z"></path><path class="cls-7" d="M1233.49,2638.6c12.21,5.28,21.34,8.12,33.7,12,12.93,4,26.78,8.27,45.55,11.28,5.8.93,10.67,1.52,14.11,1.88,0,0,3.69,8.59-7.14,11.1L1231,2645.45a7.62,7.62,0,0,1,1.18-5.44A6.78,6.78,0,0,1,1233.49,2638.6Z"></path><path class="cls-22" d="M1803.14,2593.52q-35.82-81-70.64-168-22.23-55.68-42.38-109.88-8.41-68-15.7-138.14-13.76-133-21.88-259.54l-151.87,54.16c6,78.87,13.48,145.4,19.92,196,15.43,121.21,25.65,155.67,40,188.37,18.63,42.38,39.11,69.83,73,115.37a1175.52,1175.52,0,0,0,127.15,144.42Z"></path><path class="cls-1" d="M1655,1956.17a176.25,176.25,0,0,0-4-61.5L1438.87,1920c-29.9,111.43-58.14,230.76-83.19,357.53-22.66,114.69-40.56,224.67-54.66,329.18l50,17.07q38.4-83.51,82.54-170.85,34.89-68.85,70.15-133.36s33.65-61.45,139-316.52A172.43,172.43,0,0,0,1655,1956.17Z"></path><path class="cls-13" d="M1474,1624.53a17,17,0,0,1,7.68-3.84c.35-1.64.69-3.27,1-4.91a37.32,37.32,0,0,1,20.43-12.2,34.64,34.64,0,0,1,11.07-.41,38.78,38.78,0,0,1-3.72,21c-8.18,16.32-26,20.82-33.56,22Q1475.41,1635.36,1474,1624.53Z"></path><path class="cls-18" d="M1514.14,1591.76c5.14.94,8.11-.6,9.25-1.31,8.48-5.33,6.44-22.49.85-26.16a9.39,9.39,0,0,0-5.79-1.59,7.65,7.65,0,0,0-2.89,1c-5.44,3.18-7,12.09-7,12.09l-3.69-3.16c5.19-20.18-4.44-39.69-20-45.82-16.17-6.35-31.86,4.36-33.19,5.29-2,5.53-3.92,11.42-5.72,17.66-2.49,8.61-4.44,16.79-6,24.46-1.23,1-2.77,2.56-2.74,4.47,0,1.76,1.35,2.61,2.41,4.81a13.93,13.93,0,0,1,1,6.88c-.09,8,1.78,21.21,3.14,27.61,1.81,8.51,2.72,12.77,5.38,15.42,11.82,11.78,41.87-4.47,53.46-10.74,5.18-2.79,12.36-7.28,13-13.59a57.35,57.35,0,0,0-.44-7.66C1514.81,1597.39,1514.43,1594.06,1514.14,1591.76Z"></path><path class="cls-10" d="M1514.14,1591.76c5.14.94,8.11-.6,9.25-1.31,8.48-5.33,6.44-22.49.85-26.16a9.39,9.39,0,0,0-5.79-1.59,7.65,7.65,0,0,0-2.89,1c-5.44,3.18-7,12.09-7,12.09l-3.69-3.16c5.19-20.18-4.44-39.69-20-45.82-16.17-6.35-31.86,4.36-33.19,5.29-2,5.53-3.92,11.42-5.72,17.66-2.49,8.61-4.44,16.79-6,24.46-1.23,1-2.77,2.56-2.74,4.47,0,1.76,1.35,2.61,2.41,4.81a13.93,13.93,0,0,1,1,6.88c-.09,8,1.78,21.21,3.14,27.61,1.81,8.51,2.72,12.77,5.38,15.42,11.82,11.78,41.87-4.47,53.46-10.74,5.18-2.79,12.36-7.28,13-13.59a57.35,57.35,0,0,0-.44-7.66C1514.81,1597.39,1514.43,1594.06,1514.14,1591.76Z"></path><path class="cls-26" d="M1658.42,1930.37l-222.5-.59a929.17,929.17,0,0,1,41.59-276.67,117.59,117.59,0,0,0,66-14.77,181.88,181.88,0,0,1,17.07,12.36c59.15,48.28,74.54,123.52,87.12,189.35A646.63,646.63,0,0,1,1658.42,1930.37Z"></path><path class="cls-20" d="M1449.14,1633.43c-2.49-2.68-3.57-6.9-5.38-15.42a169.88,169.88,0,0,1-3.1-25.25c4.42-.14,35.37-1.25,48.29-5.28a18.91,18.91,0,0,0,8.34-4.8c2.9-3,4.07-6.46,5.11-11a98.75,98.75,0,0,0,2.31-21.39c2-3.32,5.74-9.11,7.25-8.5,1.72.7-.31,9.45-1.18,13l-2.25,21.06s.06-.29.15-.69c-.1,5.79-.13,11.84,0,18.25.26,12.69.7,17.53-2.06,23.84a28.47,28.47,0,0,1-2.67,4.74,39.1,39.1,0,0,1-3.36,3.83C1486.41,1639.9,1459.27,1644.38,1449.14,1633.43Z"></path><path class="cls-5" d="M1460.66,1605.94a17,17,0,0,1-15.83,17c-.34-1.46-.68-3.06-1.07-4.89-.63-3-1.36-7.39-2-12.07Z"></path><path class="cls-20" d="M2356.55,1748.72c-18.79-14.69-44.88-22.72-98-25.33-209.17-10.26-270.08,169.3-433.14,147.33-68.5-9.22-121.51-44-219.43-27.87-18.45,3-37.48,9.24-58.4,19.87-102.15,51.92-159.2,174.47-192,275l141,95c-3.66-30.06-10.61-114.87,38-150,30-21.64,68.22-15.19,88-12,157.11,25.39,282.38,45.63,356.49,31,169.62-33.47,223.5-280,274.18-263.66,22.12,7.14,40.27,61,10.18,288.66l128.48-122C2396.39,1988.37,2442,1815.57,2356.55,1748.72Z"></path><path class="cls-10" d="M1545.31,2043.52c3.84-5,4-7,5.71-9.47a24.34,24.34,0,0,1,2-2.45,115.24,115.24,0,0,1,13-10.46c-.21-3.13-.41-6.26-.62-9.38l39.53,7-1.45,4.22c.22,3.8.35,7,.43,9.22.14,4.47.35,8.94.51,13.4,0,.31,0,1.09.12,2.13s.21,1.58.39,4.88c.24,4.3.42,10,.25,16.83a6.55,6.55,0,0,1-4.39,4.22,6.43,6.43,0,0,1-5.48-1.34,7.18,7.18,0,0,1-6.9,5.6,7,7,0,0,1-5.9-3.75,6.38,6.38,0,0,1-11.63-.23c-1.34,2.46-3.69,3.87-5.73,3.52a6.33,6.33,0,0,1-3.22-2,7.23,7.23,0,0,1-1.1-1.75c-1.08-6.36-1.91-12-2.55-16.72-.29-2.17-.54-4.13-.74-5.93-5.06,4.76-14.71,12.77-19.65,9.93a5.54,5.54,0,0,1-2.47-3.38C1534.49,2053.56,1539.51,2051.05,1545.31,2043.52Z"></path><path class="cls-23" d="M1610.54,2026.06a398.27,398.27,0,0,0,34.67-98.67c4.47-21.46,11.29-54.16,8-94.67-8.6-105.59-78.35-171-104-180a58,58,0,0,0-26-2.66c-3.1.51-16.42,2.74-25,12.86-9.44,11.12-8.38,26.11-7.66,34.47,4,46.79,54.32,139,60,149.33q2.51,88,5,176Z"></path><path class="cls-22" d="M2441.31,1864.73q-1.42,20.8-1.88,40.32a238.89,238.89,0,0,0,31.11-7c41.33-12,80-58.67,97.33-86.67s29.34-66.67,21.34-113.33l-89.34,88Z"></path><path class="cls-16" d="M2216,1851.1a4.86,4.86,0,0,1,5-4.06l24-2.08-24.12-1.85a4.54,4.54,0,0,1,.66-9.06l43.42-.37-15-3.74a5.63,5.63,0,0,1-4.13-4.23,4.6,4.6,0,0,1,.9-3.76c1.58-1.82,4.59-1.53,6.55-1.32a173.89,173.89,0,0,1,18.49,2.75c10.73,2.52,12.13,3,13.9,4.56a17.7,17.7,0,0,1,5.26,10,368.48,368.48,0,0,0,140.43-36.56c1.27-1.32,2.54-2.68,3.78-4.09,15.57-17.67,23.77-37.94,28-56.51l86.69,58.2c-35,51.57-47.72,61.69-60.27,68.21-26,13.53-51,12.51-68.31,11.39-33.27-2.14-76.89-5.55-128.54-11.93a19.31,19.31,0,0,1-6.34,6.2,20.31,20.31,0,0,1-8.48,2.71c-6.77.75-25.76,2.12-51.35,3.34a4.63,4.63,0,0,1-1.35-8.51l21.12-2.34-22.81.83a5.1,5.1,0,0,1-5.79-4.62,5,5,0,0,1,4-4.73l23-2.89-23.93-.21A4.89,4.89,0,0,1,2216,1851.1Z"></path><path class="cls-1" d="M2464.4,1737.27c7.19-19.61,14.18-36.31,20-49.33,7.59-17.1,22.78-30.06,41.19-33.38a62.17,62.17,0,0,1,38.47,5.28c1.26.62,2.5,1.28,3.7,2,27.5,15.91,35.47,52.19,19.06,79.39-13,21.59-24.86,39.82-34.59,54.29-.82,1.22-1.57,2.3-2.36,3.48l-86.69-58.2Z"></path><rect class="cls-12" x="975.93" y="460.23" width="277.51" height="86.69" rx="10.84"></rect><rect class="cls-27" x="1057.48" y="460.23" width="48.69" height="86.69"></rect><rect class="cls-3" x="975.93" y="376.4" width="226.99" height="86.69" rx="10.84"></rect><rect class="cls-4" x="1038.01" y="376.4" width="48.69" height="86.69"></rect><rect class="cls-3" x="996.05" y="292.44" width="226.99" height="86.69" rx="10.84"></rect><rect class="cls-4" x="1058.12" y="292.44" width="48.69" height="86.69"></rect><path class="cls-1" d="M1245,514.87V261.8A36.82,36.82,0,0,1,1281.81,225h0a36.83,36.83,0,0,1,36.82,36.82V514.87a36.82,36.82,0,0,1-36.82,36.81h0A36.81,36.81,0,0,1,1245,514.87Z"></path><rect class="cls-27" x="1244.99" y="320.99" width="73.64" height="57.32"></rect><path class="cls-3" d="M1174.37,453.31V337a36.83,36.83,0,0,1,36.82-36.82h0A36.82,36.82,0,0,1,1248,337V453.31a36.81,36.81,0,0,1-36.82,36.81h0A36.82,36.82,0,0,1,1174.37,453.31Z"></path><rect class="cls-4" x="1174.37" y="352.12" width="73.64" height="40.74"></rect><rect class="cls-14" x="929.93" y="342" width="423.9" height="24.32"></rect><path class="cls-14" d="M957.22,353.7V560.57h369.31V353.7ZM989.79,543H976V370.76h13.76Zm31.81.24h-13.76V371h13.76Zm31.81.25h-13.75V371.25h13.75Zm31.82.24h-13.76V371.5h13.76ZM1117,544h-13.76V371.74H1117Zm31.82.25H1135.1V372h13.76Zm31.81.24h-13.76V372.23h13.76Zm31.81.25h-13.75V372.48h13.75Zm31.82.24h-13.76V372.72h13.76Zm31.81.25h-13.76V373h13.76Zm31.81.24h-13.75V373.21h13.75Z"></path><rect class="cls-12" x="789.94" y="2588.12" width="277.51" height="86.69" rx="10.84"></rect><rect class="cls-27" x="871.49" y="2588.12" width="48.68" height="86.69"></rect><rect class="cls-3" x="789.94" y="2504.3" width="226.99" height="86.69" rx="10.84"></rect><rect class="cls-4" x="852.02" y="2504.3" width="48.69" height="86.69"></rect><path class="cls-3" d="M993.71,2507H853.41a43.34,43.34,0,0,1-43.35-43.34h0a43.35,43.35,0,0,1,43.35-43.35h140.3a43.34,43.34,0,0,1,43.34,43.35h0A43.33,43.33,0,0,1,993.71,2507Z"></path><rect class="cls-4" x="872.13" y="2420.33" width="48.69" height="86.69"></rect><path class="cls-1" d="M1059,2642.76V2389.69a36.81,36.81,0,0,1,36.82-36.81h0a36.82,36.82,0,0,1,36.82,36.81v253.07a36.83,36.83,0,0,1-36.82,36.82h0A36.82,36.82,0,0,1,1059,2642.76Z"></path><rect class="cls-27" x="1059" y="2448.88" width="73.64" height="57.32"></rect><path class="cls-3" d="M988.38,2581.2V2464.9a36.82,36.82,0,0,1,36.82-36.82h0A36.82,36.82,0,0,1,1062,2464.9v116.3A36.82,36.82,0,0,1,1025.2,2618h0A36.82,36.82,0,0,1,988.38,2581.2Z"></path><rect class="cls-4" x="988.38" y="2480.02" width="73.64" height="40.74"></rect><rect class="cls-14" x="743.94" y="2469.89" width="423.9" height="24.32"></rect><path class="cls-14" d="M771.23,2481.59v206.88h369.31V2481.59Zm32.57,189.32H790V2498.66H803.8Zm31.81.25H821.85V2498.9h13.76Zm31.81.24H853.67V2499.15h13.75Zm31.82.25H885.48V2499.39h13.76Zm31.81.24H917.29V2499.64h13.76Zm31.82.25H949.11V2499.88h13.76Zm31.81.24H980.92V2500.13h13.76Zm31.81.25h-13.76V2500.37h13.76Zm31.82.24h-13.76V2500.62h13.76Zm31.81.25h-13.76V2500.86h13.76Zm31.81.25h-13.75V2501.11h13.75Z"></path><circle class="cls-28" cx="2294.19" cy="1265.09" r="60" transform="translate(-222.6 1992.77) rotate(-45)"></circle><circle class="cls-29" cx="2310.19" cy="1009.09" r="32.97" transform="translate(-36.89 1929.1) rotate(-45)"></circle><circle class="cls-30" cx="2371.52" cy="846.42" r="17.68"></circle></g></g></svg> 