<?xml version="1.0" encoding="utf-8"?>
<!-- Generator: Adobe Illustrator 19.2.1, SVG Export Plug-In . SVG Version: 6.00 Build 0)  -->
<svg version="1.1" id="layer" xmlns="http://www.w3.org/2000/svg" xmlns:xlink="http://www.w3.org/1999/xlink" x="0px" y="0px"
	 viewBox="0 0 652 652" style="enable-background:new 0 0 652 652;" xml:space="preserve">
<style type="text/css">
	.st0{fill-rule:evenodd;clip-rule:evenodd;fill:#F3702E;}
	.st1{fill-rule:evenodd;clip-rule:evenodd;fill:#1E4FA0;}
	.st2{fill-rule:evenodd;clip-rule:evenodd;fill:#FFFFFF;}
</style>
<path class="st0" d="M20.3,269.1v78.4c0,4.9,4.1,11.3,8.8,11.3h82.1c7.3,0,9.4-9.7,9.4-16.3v-68.3c0-3.9-0.6-8.4-2.1-11
	c-1.7-2.9-4.2-5.2-8.5-5.2H30.3C24.1,257.8,20.3,264.1,20.3,269.1"/>
<path class="st1" d="M342.4,324.8v12.7c-2.5,6.5-13.7,14.3-21.6,7.7c-2.2-1.8-2.6-3.7-2.9-6.5c-0.3-2.5,0.1-4.5,1.9-7.1
	C324.5,324.8,331,324.6,342.4,324.8 M263.1,299.5c8.4,0,15.3,7.2,15.3,16.1c0,0.3,0,0.5,0,0.7h-30.5c0-0.2,0-0.5,0-0.7
	C247.8,306.7,254.6,299.5,263.1,299.5 M584.7,300.9c9.8,0,17.7,10.3,17.7,22.9c0,12.7-7.9,22.9-17.7,22.9c-7.3,0-13.6-5.8-16.3-14
	v-18C571.1,306.7,577.4,300.9,584.7,300.9 M517.4,268.5v3.8c0,8.5,19.4,12.9,19.4-3.1c0-7.7-11.4-10.8-16.5-5.8
	C518.9,264.7,517.4,265.9,517.4,268.5 M518.1,358.7h17.6v-69.6h-17.6V358.7z M486.7,301.7c0-3.5-0.5-4.1-0.6-6.9
	c-0.2-6.7,2.7-5.6-13.8-5.6c-3.2,0-1.3,3.2-1.3,6.3v63.3c22.2,0,18.2,3.7,18.2-15c0-7.9-1.2-25.8,2.1-31.7
	c4.6-8.2,11.5-7.1,18.6-7.1v-16.9C491.1,287.9,490.8,297,486.7,301.7 M389.5,302.3c0-5.3-0.6-8-0.6-13.2c-18.9,0-15.1-0.6-15.1,2.5
	v67.1h18.2v-38.2c0-8,5.9-15.7,13.8-15.7h7.5v-15.1c0-4.5-13.2-0.7-16.8,2.7c-2.5,2.3-4,3.9-5.6,7L389.5,302.3z M201.5,358.7H219
	V257.8h-17.6V358.7z M169.5,360c17.8,0,16.8-2.7,22.6-3.1c-1-4.2-1.5-8.9-2.5-13.2c-5.2,0.4-18.4,7.1-29-3.6
	c-10.1-10.1-9.6-42.7,22-37.6c2.4,0.4,4.1,1.5,6.4,1.7l3.3-13.1c-15-7.1-42.7-3.4-52,16.5c-4.2,8.9-5.1,19.9-1.9,29.7
	C142.9,351.1,155.3,360,169.5,360 M427.8,277.9v11.3c-12.5,0-10-2.8-10,13.8h10v34.5c0,12.7,6.3,22.6,18.8,22.6
	c17.2,0,14.4,0.1,14.4-15c-4.4,0-15.7,4.2-15.7-10v-32h16.3v-13.8h-16.3v-17.6l-13.7,3.9C429.7,275.9,427.8,275.6,427.8,277.9
	 M230.9,321.8v5.6c0,19,14.3,32.6,33.2,32.6c9.2,0,18.8-0.4,26.3-4.4c0-2-1.9-10.7-2.5-11.9c-2.5,0.2-3.4,0.9-6,1.5
	c-13,2.9-33.7,2.3-34.1-15.9h44.5c2.9,0,1.9-3.8,1.9-11.3c0-14.6-10.8-30.1-28.2-30.1c-11.5,0-17.8,2.4-25.6,10.2
	C235.9,302.7,230.9,312.7,230.9,321.8 M305.5,294.2c0.7,1.5,3,9.3,3.1,11.3c4.1-1,9.1-5,18.8-5c10.6,0,13.8,4.8,13.8,13.2
	c-17.6,0-40.7,4-40.7,25.7c0,5.9,2,10.5,5.8,14.3c6.9,6.8,10.1,6.4,19.3,6.4c3.9,0,7.5-1.4,10.2-2.9c3.7-2.1,4.5-4,7.3-5.9
	c0.2,2.4,1.1,5.1,1.3,7.5h15.7c0-4.7-0.7-6.6-0.6-11.3c0.1-9.1,0.4-29.6-0.6-36.4C354.5,279,316.2,287,305.5,294.2 M567,299.2
	c0-6.5-0.6-7.2-0.6-10c-20.9,0-15-1.8-15,10V387h16.1c3.3-0.9,2-4.5,2-16.3v-18.8c1.7,1.2,0.8,1.1,2.9,2.8c10.3,8.5,25.4,6.7,36-1.6
	c7.5-5.9,11.6-16.5,12-27.4v-3.8c-0.3-8.4-2.8-16.8-7.6-23.2c-8.5-11.4-25.8-13.9-36.4-7.1c-1.7,1.1-3.3,2.1-4.7,3.4
	C568.5,297.8,569.4,298.5,567,299.2"/>
<path class="st2" d="M55.9,318.5l-12.4-21.3c0,0-0.2,0-0.2,0.3l-0.7,0.7c-0.1,0.1-0.2,0.3-0.3,0.4l-8,13c1.6,1.7,3,3.4,4.7,5.2
	c1.8,1.9,3.4,3,5.1,4.9c3.2,3.6,6.5,7.4,9.8,10.6c3.6-1.3,46.9-29.4,52.1-32.5l-9-15.6C91.8,287.7,59.3,316.9,55.9,318.5"/>
</svg>
